PathFileType	4	(x/y/z)	S05_P20_T22
DataRate	CameraRate	NumFrames	NumMarkers	Units	OrigDataRate	OrigDataStartFrame	OrigNumFrames
240	240	5	50	mm	240	343	391
Frame#	Time	Sternum			R.Acromium			L.Acromium			Top.Head			R.ASIS			L.ASIS			R.PSIS			L.PSIS			R.Great.Tro			L.Great.Tro			R.Iliac.Crest			L.Iliac.Crest			V.Sacral			R.Thigh.Upper.Post			R.Thigh.Lower.Ant			R.Thigh.Lower.Post			R.Thigh.Upper.Ant			R.Knee.Lat			R.Knee.Med			R.Shank.Upper.Post			R.Shank.Lower.Ant			R.Shank.Lower.Post			R.Shank.Upper.Ant			R.Ankle.Lat			R.Ankle.Med			R.Heel.Upper			R.Heel.Med			R.Heel.Lat			R.Toe.Lat			R.Toe.Med			R.Toe.Tip			L.Thigh.Upper.Post			L.Thigh.Lower.Ant			L.Thigh.Lower.Post			L.Thigh.Upper.Ant			L.Knee.Lat			L.Shank.Upper.Post			L.Shank.Lower.Ant			L.Shank.Lower.Post			L.Shank.Upper.Ant			L.Ankle.Lat			L.Ankle.Med			L.Heel.Upper			L.Heel.Med			L.Heel.Lat			L.Toe.Lat			L.Toe.Med			L.Toe.Tip			Cervical.Spine			Back			
		X1	Y1	Z1	X2	Y2	Z2	X3	Y3	Z3	X4	Y4	Z4	X5	Y5	Z5	X6	Y6	Z6	X7	Y7	Z7	X8	Y8	Z8	X9	Y9	Z9	X10	Y10	Z10	X11	Y11	Z11	X12	Y12	Z12	X13	Y13	Z13	X14	Y14	Z14	X15	Y15	Z15	X16	Y16	Z16	X17	Y17	Z17	X18	Y18	Z18	X19	Y19	Z19	X20	Y20	Z20	X21	Y21	Z21	X22	Y22	Z22	X23	Y23	Z23	X24	Y24	Z24	X25	Y25	Z25	X26	Y26	Z26	X27	Y27	Z27	X28	Y28	Z28	X29	Y29	Z29	X30	Y30	Z30	X31	Y31	Z31	X32	Y32	Z32	X33	Y33	Z33	X34	Y34	Z34	X35	Y35	Z35	X36	Y36	Z36	X37	Y37	Z37	X38	Y38	Z38	X39	Y39	Z39	X40	Y40	Z40	X41	Y41	Z41	X42	Y42	Z42	X43	Y43	Z43	X44	Y44	Z44	X45	Y45	Z45	X46	Y46	Z46	X47	Y47	Z47	X48	Y48	Z48	X49	Y49	Z49	X50	Y50	Z50	

343	1.425	NaN	NaN	NaN	417.01	1527.2	458.75	391.27	1539.8	137.9	404.37	1824.7	302.07	NaN	NaN	NaN	411.04	1012.4	185.59	214.14	1030.3	358.64	213.28	1038.5	267.54	344.83	926.85	502.2	312.05	940.54	116.65	326.72	1092	477.79	325.31	1093.8	143.66	200.62	999.19	323.53	470.81	724.85	500.19	537.55	674.56	439.07	488.61	637.44	479.99	514.85	759.21	457.98	513.05	549.03	456.63	519.64	536.66	324.54	509.09	300.38	445.31	588.05	255.85	447.36	530.62	228.44	429.57	565.55	329.62	462.06	608.26	147.78	429.79	608.58	176.1	346.16	558.15	75.403	367.57	580.71	51.544	339.06	577.21	49.358	402.44	736.31	91.396	457.97	765.03	122.06	345.5	817.18	159.66	392.66	282.04	703.92	132.38	352.35	621.01	154.04	280.84	609.87	151.66	360.33	709.78	132.33	275.27	515.76	162.95	174.38	329.11	177.28	229.81	259.26	178.73	160.59	260.21	198.65	239.78	328.03	162.63	165.84	118.42	212.4	208.95	132.03	295.16	107.66	72.101	270.32	120.86	45.807	300.56	104.73	46.52	241.3	280.07	36.855	168.24	316.19	47.261	285.21	374.47	52.808	225.19	362.6	1566.9	303.1	236.79	1297.4	304.65
344	1.4292	NaN	NaN	NaN	422.16	1526.1	459.18	396.6	1539	138.41	409.74	1823.7	302.7	NaN	NaN	NaN	416.67	1011.6	185.86	219.63	1029.3	358.83	218.79	1037.7	267.75	350.27	925.5	502.18	317.39	939.91	116.71	332.07	1090.8	477.99	330.8	1092.9	143.82	206.06	998.2	323.66	475.47	723.01	499.97	541.71	672.48	438.39	492.8	635.52	479.51	519.47	757.21	457.53	517.26	547.47	455.95	523.92	534.99	323.72	515.53	298.78	445.08	595.09	255.05	447.2	537.88	227.02	429.42	571.81	328.63	461.74	616.65	146.99	429.75	616.6	175.25	346.15	567.21	74.09	367.71	589.95	50.411	339.21	586.63	48.21	402.54	745.43	91.766	457.86	773.68	122.73	345.3	825.59	160.83	392.37	286.4	703.49	132.42	356.37	620.28	154.11	284.82	609.43	151.71	364.7	709.01	132.34	278.63	515.31	163.02	176.42	329.31	177.41	231.31	259.1	178.84	162.14	260.56	198.79	241.79	327.77	162.76	166.26	118.71	212.62	209.54	132.09	295.41	107.85	72.361	270.63	121.04	46.01	300.84	104.82	46.796	241.61	280.09	36.869	168.3	316.36	47.053	285.23	374.61	52.517	225.19	367.82	1565.9	303.53	242.1	1296.3	304.78
345	1.4333	NaN	NaN	NaN	427.31	1525	459.65	401.95	1538.3	138.94	415.11	1822.8	303.33	NaN	NaN	NaN	422.32	1010.8	186.12	225.12	1028.2	359.02	224.32	1036.8	267.95	355.73	924.17	502.16	322.77	939.24	116.76	337.42	1089.6	478.2	336.32	1092.1	143.98	211.5	997.18	323.79	480.24	721.25	499.74	546.01	670.54	437.73	497.13	633.7	479	524.21	755.33	457.11	521.59	545.97	455.29	528.34	533.43	322.96	521.65	297.26	444.77	601.73	254.19	446.96	544.7	225.64	429.15	577.78	327.59	461.37	624.42	146.16	429.61	624.11	174.37	346.03	575.58	72.873	367.68	598.46	49.34	339.2	595.28	47.132	402.48	753.78	91.891	457.7	781.69	123.1	345.08	833.38	161.59	392.11	290.83	703.01	132.47	360.47	619.53	154.18	288.89	608.95	151.77	369.14	708.22	132.36	282.1	514.82	163.09	178.55	329.53	177.54	232.88	258.93	178.96	163.76	260.91	198.93	243.88	327.5	162.89	166.69	119.03	212.83	210.14	132.16	295.65	108.03	72.665	270.94	121.22	46.258	301.13	104.91	47.115	241.91	280.11	36.882	168.36	316.53	46.844	285.26	374.75	52.222	225.18	373.04	1564.9	303.99	247.41	1295.2	304.92
346	1.4375	NaN	NaN	NaN	432.45	1523.9	460.14	407.33	1537.5	139.49	420.49	1821.8	303.99	NaN	NaN	NaN	428.01	1010	186.39	230.62	1027.2	359.19	229.87	1035.8	268.13	361.19	922.85	502.17	328.18	938.54	116.82	342.78	1088.4	478.4	341.87	1091.2	144.14	216.94	996.12	323.9	485.11	719.6	499.5	550.48	668.74	437.09	501.59	632.01	478.47	529.07	753.57	456.74	526.01	544.54	454.67	532.93	531.98	322.25	527.45	295.79	444.37	607.95	253.25	446.64	551.09	224.31	428.75	583.47	326.49	460.94	631.58	145.28	429.35	631.12	173.46	345.79	583.27	71.741	367.47	606.26	48.314	339.01	603.14	46.114	402.27	761.37	91.757	457.48	789.08	123.16	344.85	840.57	161.95	391.86	295.34	702.5	132.52	364.67	618.77	154.25	293.06	608.43	151.83	373.65	707.42	132.38	285.69	514.3	163.15	180.75	329.75	177.65	234.51	258.76	179.08	165.44	261.28	199.06	246.05	327.23	163.02	167.14	119.37	213.04	210.77	132.25	295.9	108.22	73.024	271.23	121.4	46.561	301.4	104.99	47.484	242.2	280.13	36.893	168.43	316.71	46.637	285.29	374.89	51.922	225.18	378.26	1563.9	304.48	252.73	1294.1	305.07
347	1.4417	NaN	NaN	NaN	437.59	1522.8	460.67	412.72	1536.7	140.06	425.86	1820.8	304.65	NaN	NaN	NaN	433.73	1009.1	186.65	236.11	1026.1	359.35	235.42	1034.8	268.31	366.66	921.56	502.19	333.62	937.81	116.88	348.15	1087.2	478.62	347.43	1090.3	144.29	222.39	995.04	324.01	490.07	718.04	499.23	555.11	667.07	436.49	506.18	630.43	477.9	534.07	751.94	456.42	530.54	543.16	454.09	537.68	530.63	321.6	532.94	294.39	443.88	613.78	252.23	446.24	557.06	223.01	428.24	588.89	325.34	460.45	638.14	144.35	428.99	637.63	172.5	345.45	590.27	70.683	367.09	613.34	47.324	338.66	610.22	45.15	401.9	768.22	91.354	457.21	795.85	122.89	344.58	847.18	161.89	391.62	299.92	701.96	132.58	368.95	617.98	154.31	297.32	607.89	151.89	378.24	706.59	132.4	289.39	513.76	163.2	183.03	329.99	177.76	236.21	258.59	179.19	167.18	261.67	199.17	248.29	326.95	163.14	167.61	119.75	213.23	211.41	132.37	296.13	108.42	73.446	271.51	121.57	46.927	301.66	105.08	47.914	242.48	280.15	36.901	168.5	316.88	46.433	285.31	375.03	51.616	225.18	383.49	1562.9	304.99	258.06	1293.1	305.24
